<svg width="42" height="42" viewBox="0 0 42 42" fill="none" xmlns="http://www.w3.org/2000/svg"><path fill-rule="evenodd" clip-rule="evenodd" d="M21 42C32.598 42 42 32.598 42 21C42 9.40202 32.598 0 21 0C9.40202 0 0 9.40202 0 21C0 32.598 9.40202 42 21 42ZM26.0284 9H15.9716C12.1275 9 9 12.1275 9 15.9716V26.0284C9 29.8725 12.1275 33 15.9716 33H26.0284C29.8725 33 33 29.8725 33 26.0284V15.9716C33 12.1275 29.8725 9 26.0284 9ZM15.9716 31.125C13.1613 31.125 10.875 28.8387 10.875 26.0284V15.9716C10.875 13.1613 13.1613 10.875 15.9716 10.875H26.0284C28.8387 10.875 31.125 13.1613 31.125 15.9716V26.0284C31.125 28.8387 28.8387 31.125 26.0284 31.125H15.9716ZM27.4688 21C27.4688 17.4331 24.5669 14.5312 21 14.5312C17.4331 14.5312 14.5312 17.4331 14.5312 21C14.5312 24.5669 17.4331 27.4688 21 27.4688C24.5669 27.4688 27.4688 24.5669 27.4688 21ZM25.5938 21C25.5938 23.533 23.533 25.5938 21 25.5938C18.467 25.5938 16.4062 23.533 16.4062 21C16.4062 18.467 18.467 16.4062 21 16.4062C23.533 16.4062 25.5938 18.467 25.5938 21ZM14.4375 15.375C13.9197 15.375 13.5 14.9553 13.5 14.4375C13.5 13.9197 13.9197 13.5 14.4375 13.5C14.9553 13.5 15.375 13.9197 15.375 14.4375C15.375 14.9553 14.9553 15.375 14.4375 15.375Z" fill="#03CCBB"/></svg>