<svg width="16" height="16" viewBox="0 0 16 16" fill="none" xmlns="http://www.w3.org/2000/svg">
<path d="M5.83736 15.3795L5.82883 15.3845C5.07363 15.8653 4.17702 16.0741 3.28709 15.9765C2.39716 15.8789 1.56713 15.4807 0.93409 14.8477L0.383753 14.2973C0.137955 14.0512 -0.000107765 13.7176 -0.000107765 13.3698C-0.000107765 13.022 0.137955 12.6884 0.383753 12.4422L2.70243 10.125C2.94853 9.8792 3.28214 9.74113 3.62997 9.74113C3.97779 9.74113 4.3114 9.8792 4.55751 10.125C4.67921 10.2468 4.82374 10.3435 4.98284 10.4095C5.14193 10.4754 5.31247 10.5094 5.48469 10.5094C5.65692 10.5094 5.82745 10.4754 5.98654 10.4095C6.14564 10.3435 6.29017 10.2468 6.41188 10.125L10.122 6.41412C10.3678 6.16801 10.5059 5.83441 10.5059 5.48658C10.5059 5.13875 10.3678 4.80514 10.122 4.55904C10.0002 4.43733 9.90351 4.2928 9.83756 4.1337C9.7716 3.97461 9.73765 3.80408 9.73765 3.63185C9.73765 3.45963 9.7716 3.28909 9.83756 3.13C9.90351 2.9709 10.0002 2.82637 10.122 2.70467L12.44 0.383859C12.6861 0.138062 13.0197 0 13.3675 0C13.7154 0 14.049 0.138062 14.2951 0.383859L14.8454 0.934197C15.4784 1.56729 15.8766 2.39725 15.9743 3.28711C16.072 4.17698 15.8634 5.07358 15.383 5.82894L15.3773 5.83747C12.8365 9.5987 9.59803 12.8379 5.83736 15.3795Z" fill="#03CCBB"/>
</svg>
