<svg width="16" height="16" viewBox="0 0 16 16" fill="none" xmlns="http://www.w3.org/2000/svg">
<path fill-rule="evenodd" clip-rule="evenodd" d="M3.71346e-05 7.95991C-0.0128861 3.72954 3.34886 0.210451 7.60888 0.00925298C12.2908 -0.21192 16.1415 3.56114 15.996 8.18904C15.8603 12.5064 12.2297 15.9357 7.87556 15.8698C6.64175 15.8511 5.47596 15.5549 4.43805 15.0421L0.398151 15.9915C0.176604 16.0435 -0.0245364 15.8498 0.0214088 15.6286L0.870757 11.5391C0.317564 10.4645 0.00397198 9.24837 3.71346e-05 7.95991ZM8.00001 14.1488C9.67317 14.1488 11.2462 13.5025 12.4293 12.3289C13.6019 11.1659 14.2641 9.58009 14.2641 7.93523C14.2641 6.27559 13.6125 4.71529 12.4294 3.54174C11.2463 2.36822 9.67328 1.72192 8.00012 1.72189C6.34189 1.72189 4.74319 2.37871 3.57064 3.54178C2.38753 4.71537 1.73596 6.27567 1.73596 7.93534C1.73596 8.92936 1.96503 9.87837 2.41681 10.756L2.69398 11.2944L2.17261 13.8048L4.64949 13.2227L5.21209 13.5007C6.08235 13.9307 7.02031 14.1488 8.00001 14.1488ZM10.333 9.21489L11.8826 9.65624C12.2538 9.76196 12.4171 10.1915 12.2103 10.515C11.9069 10.9894 11.4261 11.5688 10.8245 11.7133C9.76394 11.9682 8.13499 11.7194 6.10083 9.83616C4.34006 8.20607 3.87444 6.84849 3.98442 5.77156C4.0468 5.16073 4.55995 4.60937 4.99244 4.24654C5.28728 3.99919 5.73859 4.10117 5.89475 4.45149L6.5467 5.9141C6.63242 6.10638 6.60507 6.32977 6.47545 6.49611L6.14462 6.92066C6.00512 7.0997 5.98633 7.34502 6.09994 7.54125C6.49374 8.22149 8.03573 9.58143 8.76877 9.87569C8.98025 9.96056 9.22271 9.90867 9.38249 9.74719L9.76144 9.36424C9.90988 9.2142 10.1293 9.15688 10.333 9.21489Z" fill="#03CCBB"/>
</svg>
